<?xml version="1.0" standalone="no"?>
<!DOCTYPE svg PUBLIC "-//W3C//DTD SVG 20010904//EN"
 "http://www.w3.org/TR/2001/REC-SVG-20010904/DTD/svg10.dtd">
<svg version="1.0" xmlns="http://www.w3.org/2000/svg"
 width="813.000000pt" height="948.000000pt" viewBox="0 0 813.000000 948.000000"
 preserveAspectRatio="xMidYMid meet">
<metadata>
Created by potrace 1.16, written by Peter Selinger 2001-2019
</metadata>
<g transform="translate(0.000000,948.000000) scale(0.100000,-0.100000)"
fill="#000000" stroke="none">
<path d="M100 8048 c0 -761 0 -1509 -1 -1663 -1 -154 -1 -1258 0 -2452 l1
-2173 3945 0 3945 0 0 3835 0 3835 -3945 0 -3945 0 0 -1382z m1178 -1521 c93
-32 169 -90 220 -166 47 -71 79 -148 66 -160 -5 -4 -66 -20 -137 -35 -70 -16
-136 -30 -146 -33 -15 -4 -22 3 -30 30 -7 20 -29 51 -50 70 -97 88 -245 71
-318 -36 -43 -64 -57 -138 -51 -274 5 -98 9 -120 34 -170 17 -35 42 -67 62
-80 64 -42 181 -42 244 0 36 25 84 103 94 155 3 17 8 32 11 32 2 0 73 -21 158
-46 l153 -47 -10 -36 c-19 -70 -69 -161 -119 -215 -99 -109 -240 -154 -444
-143 -186 10 -275 44 -374 144 -119 119 -164 246 -164 453 1 204 45 331 152
438 61 62 162 114 262 137 102 23 294 14 387 -18z m782 -562 l0 -575 -160 0
-160 0 0 575 0 575 160 0 160 0 0 -575z m1750 255 l90 0 0 -115 0 -115 -90 0
-90 0 0 -185 c0 -175 1 -186 21 -206 18 -18 29 -20 63 -15 87 13 80 18 88 -54
4 -36 9 -81 11 -101 l5 -37 -75 -11 c-165 -25 -292 -9 -350 42 -69 61 -77 94
-81 345 l-4 222 -59 0 -59 0 0 115 0 115 60 0 60 0 0 78 0 77 158 82 157 82 3
-160 2 -159 90 0z m562 115 l3 -205 53 40 c129 96 318 94 417 -5 73 -73 78
-100 83 -462 l4 -313 -161 0 -161 0 0 230 c0 317 -11 357 -102 367 -32 3 -52
-1 -76 -17 -57 -36 -62 -61 -62 -335 l0 -245 -160 0 -160 0 0 575 0 575 160 0
160 0 2 -205z m1078 95 l0 -110 -160 0 -160 0 0 110 0 110 160 0 160 0 0 -110z
m-2609 -204 c225 -48 347 -209 337 -445 -3 -82 -8 -106 -35 -163 -75 -160
-230 -248 -438 -248 -206 0 -363 89 -438 248 -30 64 -32 73 -32 187 0 116 1
123 33 188 59 120 166 204 295 232 82 18 196 18 278 1z m3508 -2 c67 -19 131
-81 156 -150 16 -43 19 -90 23 -366 l4 -318 -161 0 -161 0 0 230 c0 317 -11
357 -102 367 -32 3 -52 -1 -76 -17 -57 -36 -62 -61 -62 -335 l0 -245 -160 0
-160 0 0 415 0 415 145 0 145 0 0 -66 0 -67 53 50 c29 27 64 56 77 63 76 41
190 51 279 24z m830 -20 c29 -15 66 -43 82 -61 l29 -34 0 56 0 55 150 0 150 0
1 -412 c1 -489 2 -471 -17 -528 -54 -168 -218 -241 -504 -227 -244 12 -354 88
-368 252 -2 36 -2 65 1 65 2 0 72 -9 153 -20 82 -11 150 -20 151 -20 1 0 9
-13 17 -29 26 -48 112 -66 182 -36 49 20 64 62 64 177 l0 92 -32 -32 c-57 -54
-121 -77 -218 -77 -103 0 -157 21 -224 88 -82 83 -116 177 -116 327 0 143 28
229 99 303 68 72 142 98 262 93 72 -3 95 -8 138 -32z m-1729 -399 l0 -415
-160 0 -160 0 0 415 0 415 160 0 160 0 0 -415z"/>
<path d="M2642 6014 c-68 -35 -96 -107 -90 -233 6 -137 53 -196 153 -196 61 0
98 21 130 76 17 28 20 52 20 144 0 120 -12 157 -66 198 -37 27 -106 32 -147
11z"/>
<path d="M7064 5991 c-43 -26 -64 -84 -64 -177 0 -93 22 -143 76 -169 71 -33
148 -3 180 72 23 53 18 171 -9 218 -39 69 -121 94 -183 56z"/>
<path d="M505 1221 c-237 -68 -374 -258 -375 -519 0 -175 48 -308 148 -410
104 -107 214 -147 402 -146 103 0 136 4 190 23 168 59 278 173 332 346 33 105
31 273 -4 373 -63 176 -187 292 -363 337 -81 21 -252 19 -330 -4z m226 -241
c45 -13 96 -63 122 -120 18 -38 21 -66 22 -170 0 -117 -2 -129 -28 -182 -39
-79 -74 -102 -162 -106 -60 -3 -75 0 -105 20 -69 47 -98 112 -107 243 -9 129
33 253 99 294 45 28 104 36 159 21z"/>
<path d="M1652 848 c3 -358 4 -376 26 -438 45 -127 123 -201 257 -243 93 -29
336 -31 430 -3 160 47 249 146 281 313 10 56 14 160 14 409 l0 334 -169 0
-169 0 -4 -352 c-3 -329 -4 -356 -23 -393 -27 -52 -70 -76 -139 -76 -93 0
-140 36 -156 121 -5 29 -10 198 -10 376 l0 324 -171 0 -170 0 3 -372z"/>
<path d="M3010 1080 l0 -140 155 0 155 0 0 -385 0 -385 170 0 170 0 0 385 0
385 155 0 155 0 0 140 0 140 -480 0 -480 0 0 -140z"/>
<path d="M4420 695 l0 -525 410 0 410 0 0 120 0 120 -240 0 -240 0 0 405 0
405 -170 0 -170 0 0 -525z"/>
<path d="M5720 695 l0 -525 435 0 435 0 0 120 0 120 -265 0 -265 0 0 85 0 85
215 0 215 0 0 120 0 120 -215 0 -215 0 0 75 0 75 255 0 255 0 0 125 0 125
-425 0 -425 0 0 -525z"/>
<path d="M6970 1080 l0 -140 150 0 150 0 0 -385 0 -385 175 0 175 0 0 385 0
385 155 0 155 0 0 140 0 140 -480 0 -480 0 0 -140z"/>
</g>
</svg>
